<svg width="23" height="23" viewBox="0 0 23 23" fill="none" xmlns="http://www.w3.org/2000/svg">
<path d="M11.1 16.125V10.575" stroke="#E41D41" stroke-width="1.3875" stroke-linecap="round"/>
<path d="M11.1 6.87496C11.6108 6.87496 12.025 7.2891 12.025 7.79996C12.025 8.31082 11.6108 8.72496 11.1 8.72496C10.5891 8.72496 10.175 8.31082 10.175 7.79996C10.175 7.2891 10.5891 6.87496 11.1 6.87496Z" fill="#E41D41"/>
<path d="M6.47498 3.48745C7.83553 2.70041 9.41518 2.24996 11.1 2.24996C16.2086 2.24996 20.35 6.39133 20.35 11.5C20.35 16.6086 16.2086 20.75 11.1 20.75C5.99134 20.75 1.84998 16.6086 1.84998 11.5C1.84998 9.81517 2.30042 8.23552 3.08746 6.87496" stroke="#E41D41" stroke-width="1.3875" stroke-linecap="round"/>
</svg>
